<svg width="112" height="24" viewBox="0 0 112 24" fill="none" xmlns="http://www.w3.org/2000/svg">
<path fill-rule="evenodd" clip-rule="evenodd" d="M13.9299 8.17C18.9299 6.5 19.2699 0.290001 14.3799 0.290001C12.6153 0.471939 11.0749 1.56468 10.3199 3.17L3.71994 14.59C3.44587 15.0873 3.12794 15.5592 2.76994 16C1.94093 14.8628 1.60419 13.4399 1.83555 12.0518C2.06691 10.6636 2.84691 9.42687 3.99994 8.62L2.99994 7.37C-2.14006 10.65 -0.630059 20.12 7.99994 20.12C15.2599 20.12 18.6599 11.31 13.9299 8.17ZM7.86994 18.23C6.63592 18.261 5.41534 17.9679 4.32994 17.38C4.78835 16.8322 5.1998 16.2468 5.55994 15.63L9.68994 8.48L10.3499 8.55C16.1099 9.76 13.8199 18.23 7.86994 18.23ZM12.5099 3.6L10.5099 7C12.9999 7 14.4099 6.45 15.3599 4.6C16.5899 2.33 14.2999 0.510001 12.5099 3.6Z" fill="white"/>
<path fill-rule="evenodd" clip-rule="evenodd" d="M109.91 13.56L110.08 13.37C110.517 13.516 110.865 13.8499 111.03 14.28C109.02 16.61 106.68 18.74 103.12 18.81H102.98C101.724 18.8594 100.604 18.0266 100.29 16.81L101.68 16.15C101.853 16.4786 102.193 16.6844 102.565 16.6844C102.936 16.6844 103.277 16.4786 103.45 16.15L107.16 9.73C107.8 8.62 106.08 7.25 103.34 10.98L95.9997 23.75H93.5297L97.9997 16C97.1553 16.3741 96.2433 16.5715 95.3197 16.58H94.7797C92.1197 19.94 87.7797 19.33 87.7797 16.2C86.2597 17.66 84.6897 18.73 83.2597 18.73C81.2797 18.73 80.5797 17.05 81.5797 15.24L84.7697 9.69C85.8397 7.87 84.1597 7.26 80.3797 12L76.6397 18.53H74.1597L74.9997 17.06C73.8978 17.9174 72.604 18.4939 71.2297 18.74H71.1597C70.9332 18.7516 70.7062 18.7516 70.4797 18.74C69.2278 18.7846 68.1133 17.9528 67.7997 16.74L69.3297 15.94C69.5094 16.4394 69.9614 16.79 70.4897 16.84C72.0222 16.84 72.3088 14.8588 72.61 12.777C72.7667 11.6935 72.9274 10.5828 73.2697 9.71C73.0811 9.95928 72.8756 10.2358 72.6552 10.5324C71.859 11.6039 70.8684 12.9368 69.7797 14.19C67.7397 16.55 65.3697 18.72 63.3797 18.72C61.3897 18.72 60.6997 17.05 61.6997 15.23L64.2997 10.72C64.5523 10.2738 64.4962 9.71688 64.1597 9.33L63.8297 8.93C61.8697 11.59 60.9497 12.82 59.7697 14.19C57.7397 16.55 54.9797 18.72 52.1897 18.72C50.0197 18.72 48.7297 17.37 48.8597 15.6C47.8688 16.1896 46.7508 16.5325 45.5997 16.6C45.4199 16.6117 45.2395 16.6117 45.0597 16.6C44.0937 17.9667 42.5515 18.8116 40.8797 18.89C40.1463 18.9616 39.4172 18.7161 38.8764 18.2154C38.3357 17.7148 38.0348 17.0068 38.0497 16.27C36.5397 17.72 34.9697 18.79 33.5397 18.79C31.5497 18.79 30.8597 17.12 31.8597 15.3L34.4597 10.79C34.7122 10.3438 34.6562 9.78688 34.3197 9.4L33.9997 9C33.3825 9.80858 32.8729 10.4848 32.4291 11.0735L32.4287 11.0741L32.4282 11.0747L32.4282 11.0748C31.4347 12.3931 30.7715 13.2731 29.9697 14.22C27.9297 16.58 25.5697 18.75 23.5697 18.75C22.5421 18.8871 21.5943 18.1751 21.4397 17.15C20.5069 18.0336 19.3151 18.5945 18.0397 18.75C16.0497 18.75 15.3597 17.08 16.3597 15.26L19.7997 9.31C20.6498 7.73397 22.2198 6.67607 23.9997 6.48C25.4042 6.46889 26.5532 7.59557 26.5697 9H27.9997L24.0297 15.9C23.4597 16.86 23.7697 17.24 24.3097 17.24C25.3997 17.24 27.1197 15.61 28.8897 13.56L29.0597 13.37C30.5448 11.6157 31.9093 9.6977 32.9693 8.20779L32.9693 8.20776L33.2097 7.87L32.9997 7.59C32.0897 6.45 32.2097 5.06 33.5997 3.81L34.8697 5.2C34.6607 5.36834 34.5282 5.61359 34.5019 5.88064C34.4755 6.14768 34.5576 6.4141 34.7297 6.62L36.1097 8.27C37.0579 9.12865 37.2086 10.563 36.4597 11.6L34.0097 15.9C33.4397 16.86 33.7497 17.24 34.2897 17.24C35.3797 17.24 37.0997 15.61 38.8697 13.56L38.9997 13.41L45.8697 1.5H48.3697L45.2497 6.91C45.7165 6.57306 46.2742 6.38486 46.8497 6.37C47.445 6.3352 48.0269 6.55508 48.4505 6.97479C48.874 7.3945 49.0991 7.97446 49.0697 8.57C49.0023 9.56875 48.686 10.5347 48.1497 11.38L45.8397 15.38C47.2735 15.3072 48.6146 14.6493 49.5497 13.56L49.6997 13.39L52.0397 9.28C52.9228 7.55032 54.6977 6.45839 56.6397 6.45C58.6397 6.45 59.9597 8.18 58.6397 10.45L58.2897 11.06C56.4497 14.24 53.4697 14.55 51.8897 13.89L51.6497 14.31C50.5197 16.3 51.4197 17.24 52.9297 17.24C54.6897 17.24 56.9197 15.61 58.6897 13.56L58.8597 13.37C60.3449 11.6157 61.7094 9.69762 62.7694 8.20769L63.0097 7.87L62.7997 7.59C61.9197 6.45 61.9997 5.06 63.4397 3.81L64.7097 5.2C64.5007 5.36834 64.3682 5.61359 64.3419 5.88064C64.3155 6.14768 64.3976 6.4141 64.5697 6.62L65.9097 8.25C66.8579 9.10865 67.0086 10.543 66.2597 11.58L63.7997 15.88C63.2297 16.84 63.5397 17.22 64.0797 17.22C65.1697 17.22 66.8897 15.59 68.6597 13.54L68.8297 13.35C70.746 11.1057 72.6697 8.40692 73.8034 6.81649L73.8035 6.81627L73.8036 6.8162C73.9832 6.56424 74.143 6.3401 74.2797 6.15L76.1297 7.15C75.2127 9.06304 74.9116 11.1347 74.6418 12.9908C74.4674 14.191 74.306 15.3011 73.9997 16.22C75.1087 15.4683 76.114 14.5739 76.9897 13.56L77.1297 13.4L83.9997 1.53H86.4097L82.4897 8.35C83.3298 7.28968 84.5637 6.61501 85.9097 6.48C87.2297 6.48 88.2897 7.82 87.2297 9.69L83.6897 15.9C83.1197 16.86 83.4297 17.24 83.9697 17.24C85.0597 17.24 86.7797 15.61 88.5497 13.56L88.6797 13.41L89.6797 11.69L90.8797 9.59C92.2997 7.14 93.7597 6.38 95.6497 6.38C97.9697 6.38 99.3397 8.81 97.8497 11.38L95.5297 15.38C96.962 15.3014 98.3009 14.6446 99.2397 13.56L99.4097 13.37L103.25 6.71H105.71L105.21 7.56C107.71 5.32 111.42 6.62 109.13 10.51L106.42 15.16C106.315 15.3474 106.208 15.5556 106.095 15.7753C105.895 16.165 105.676 16.5907 105.42 17C107.178 16.2432 108.721 15.0611 109.91 13.56ZM56.6297 10.44C58.0997 7.92 55.5997 7.49 54.1797 9.92L52.5997 12.68C53.5197 13.05 55.0997 13.05 56.2797 11.05L56.6297 10.44ZM22.7197 13.79C21.2297 16.13 19.7197 17.24 18.7197 17.24C18.1797 17.24 17.8697 16.86 18.4397 15.9L21.8597 9.9C23.1797 7.61 25.7997 8.2 24.5997 10.42L22.7197 13.79ZM40.4893 16.8938C40.6802 17.0733 40.9387 17.1629 41.1997 17.14C41.972 17.0969 42.6708 16.6686 43.0597 16C42.1883 15.4087 41.6185 14.4664 41.4997 13.42L40.6297 14.93C40.3842 15.3116 40.2365 15.7478 40.1997 16.2C40.193 16.462 40.2984 16.7144 40.4893 16.8938ZM43.7697 14.76C43.096 14.226 42.7232 13.3984 42.7697 12.54C42.7697 10.79 44.4697 7.94 45.8597 7.94C46.1225 7.9518 46.3683 8.07317 46.5374 8.27461C46.7066 8.47606 46.7836 8.73915 46.7497 9C46.7222 9.51917 46.5602 10.0223 46.2797 10.46L43.7697 14.76ZM94.0697 13.53H94.1897L96.0197 10.44C97.4997 7.89 95.1397 6.73 93.4197 9.66L92.2397 11.66L90.3697 14.89C88.8697 17.43 91.7097 17.83 92.8697 15.83C92.7161 15.5802 92.6331 15.2933 92.6297 15C92.6244 14.6137 92.7734 14.2413 93.0438 13.9653C93.3141 13.6893 93.6834 13.5326 94.0697 13.53Z" fill="white"/>
</svg>
